<svg width="534" height="380" viewBox="0 0 534 380" fill="none" xmlns="http://www.w3.org/2000/svg">
<rect width="534" height="380" rx="12" fill="white"/>
<path d="M89.5461 344.801H90.9409V353.034C90.9409 353.769 90.8059 354.394 90.5359 354.907C90.266 355.421 89.8854 355.811 89.3943 356.077C88.9031 356.343 88.3238 356.476 87.6565 356.476C87.0266 356.476 86.4661 356.362 85.9749 356.133C85.4837 355.901 85.0976 355.571 84.8164 355.143C84.5352 354.716 84.3946 354.208 84.3946 353.619H85.7668C85.7668 353.946 85.8474 354.23 86.0086 354.474C86.1736 354.714 86.3986 354.902 86.6835 355.037C86.9685 355.172 87.2928 355.239 87.6565 355.239C88.0576 355.239 88.3988 355.155 88.68 354.986C88.9612 354.817 89.1749 354.57 89.3212 354.244C89.4711 353.914 89.5461 353.511 89.5461 353.034V344.801ZM95.7813 356.521C95.2339 356.521 94.7371 356.418 94.291 356.212C93.8448 356.002 93.4905 355.7 93.228 355.307C92.9656 354.909 92.8344 354.429 92.8344 353.867C92.8344 353.372 92.9318 352.971 93.1268 352.663C93.3218 352.352 93.5823 352.108 93.9085 351.932C94.2347 351.756 94.5947 351.625 94.9883 351.538C95.3858 351.448 95.7851 351.377 96.1862 351.325C96.7111 351.257 97.1367 351.207 97.4629 351.173C97.7928 351.135 98.0328 351.074 98.1827 350.987C98.3365 350.901 98.4133 350.751 98.4133 350.537V350.492C98.4133 349.938 98.2615 349.506 97.9578 349.199C97.6578 348.891 97.2023 348.738 96.5912 348.738C95.9575 348.738 95.4607 348.876 95.1008 349.154C94.7409 349.431 94.4878 349.728 94.3416 350.042L93.0818 349.593C93.3068 349.068 93.6067 348.659 93.9816 348.367C94.3603 348.07 94.7727 347.864 95.2189 347.748C95.6688 347.628 96.1113 347.568 96.5462 347.568C96.8236 347.568 97.1423 347.602 97.5022 347.669C97.8659 347.733 98.2165 347.866 98.5539 348.068C98.8951 348.271 99.1782 348.577 99.4032 348.985C99.6281 349.394 99.7406 349.941 99.7406 350.627V356.319H98.4133V355.149H98.3458C98.2559 355.337 98.1059 355.537 97.8959 355.751C97.686 355.965 97.4066 356.146 97.058 356.296C96.7093 356.446 96.2837 356.521 95.7813 356.521ZM95.9838 355.329C96.5087 355.329 96.9511 355.226 97.311 355.02C97.6747 354.813 97.9484 354.547 98.1321 354.221C98.3196 353.895 98.4133 353.552 98.4133 353.192V351.977C98.3571 352.045 98.2334 352.106 98.0421 352.163C97.8547 352.215 97.6372 352.262 97.3898 352.303C97.1461 352.341 96.908 352.375 96.6755 352.405C96.4468 352.431 96.2612 352.453 96.1188 352.472C95.7738 352.517 95.4514 352.59 95.1514 352.691C94.8552 352.789 94.6153 352.937 94.4316 353.136C94.2516 353.331 94.1616 353.597 94.1616 353.934C94.1616 354.395 94.3322 354.744 94.6734 354.98C95.0183 355.213 95.4551 355.329 95.9838 355.329ZM103.174 351.122V356.319H101.846V347.68H103.129V349.03H103.241C103.444 348.592 103.751 348.239 104.163 347.973C104.576 347.703 105.108 347.568 105.761 347.568C106.346 347.568 106.857 347.688 107.296 347.928C107.735 348.164 108.076 348.524 108.32 349.008C108.563 349.488 108.685 350.095 108.685 350.83V356.319H107.358V350.92C107.358 350.241 107.182 349.713 106.829 349.334C106.477 348.951 105.993 348.76 105.378 348.76C104.955 348.76 104.576 348.852 104.242 349.036C103.912 349.22 103.652 349.488 103.46 349.84C103.269 350.192 103.174 350.62 103.174 351.122Z" fill="#060020" fill-opacity="0.7"/>
<path d="M148.485 356.319V344.801H155.391V346.038H149.879V349.93H154.873V351.167H149.879V356.319H148.485ZM160.271 356.499C159.438 356.499 158.72 356.315 158.117 355.948C157.517 355.576 157.054 355.059 156.728 354.395C156.405 353.728 156.244 352.952 156.244 352.067C156.244 351.182 156.405 350.402 156.728 349.728C157.054 349.049 157.507 348.52 158.089 348.142C158.673 347.759 159.356 347.568 160.136 347.568C160.586 347.568 161.03 347.643 161.469 347.793C161.907 347.943 162.307 348.187 162.666 348.524C163.026 348.858 163.313 349.3 163.527 349.851C163.741 350.402 163.847 351.081 163.847 351.887V352.45H157.189V351.302H162.498C162.498 350.815 162.4 350.38 162.205 349.998C162.014 349.615 161.74 349.313 161.384 349.092C161.032 348.871 160.616 348.76 160.136 348.76C159.607 348.76 159.15 348.891 158.763 349.154C158.381 349.413 158.087 349.75 157.88 350.166C157.674 350.582 157.571 351.029 157.571 351.505V352.27C157.571 352.922 157.684 353.475 157.909 353.929C158.137 354.379 158.454 354.722 158.859 354.958C159.264 355.19 159.734 355.307 160.271 355.307C160.619 355.307 160.934 355.258 161.215 355.16C161.5 355.059 161.746 354.909 161.952 354.71C162.158 354.508 162.318 354.257 162.43 353.957L163.713 354.317C163.578 354.752 163.351 355.134 163.032 355.464C162.713 355.79 162.32 356.045 161.851 356.229C161.382 356.409 160.856 356.499 160.271 356.499ZM165.73 356.319V344.801H167.057V349.053H167.169C167.267 348.903 167.402 348.711 167.574 348.479C167.751 348.243 168.002 348.033 168.328 347.849C168.658 347.662 169.104 347.568 169.666 347.568C170.394 347.568 171.035 347.75 171.59 348.113C172.145 348.477 172.578 348.993 172.889 349.66C173.2 350.327 173.356 351.115 173.356 352.022C173.356 352.937 173.2 353.73 172.889 354.401C172.578 355.068 172.147 355.586 171.596 355.953C171.044 356.317 170.409 356.499 169.689 356.499C169.134 356.499 168.69 356.407 168.356 356.223C168.022 356.036 167.766 355.824 167.586 355.588C167.406 355.348 167.267 355.149 167.169 354.992H167.012V356.319H165.73ZM167.034 352C167.034 352.652 167.13 353.228 167.321 353.726C167.513 354.221 167.792 354.609 168.159 354.89C168.527 355.168 168.977 355.307 169.509 355.307C170.064 355.307 170.527 355.16 170.898 354.868C171.273 354.572 171.554 354.174 171.742 353.676C171.933 353.173 172.029 352.615 172.029 352C172.029 351.392 171.935 350.845 171.747 350.357C171.564 349.866 171.284 349.478 170.909 349.193C170.538 348.905 170.071 348.76 169.509 348.76C168.969 348.76 168.515 348.897 168.148 349.171C167.781 349.441 167.503 349.819 167.316 350.307C167.128 350.79 167.034 351.355 167.034 352Z" fill="#060020" fill-opacity="0.7"/>
<path d="M211.834 344.801H213.499L217.413 354.362H217.548L221.462 344.801H223.127V356.319H221.822V347.568H221.71L218.111 356.319H216.851L213.251 347.568H213.139V356.319H211.834V344.801ZM227.969 356.521C227.422 356.521 226.925 356.418 226.479 356.212C226.032 356.002 225.678 355.7 225.416 355.307C225.153 354.909 225.022 354.429 225.022 353.867C225.022 353.372 225.12 352.971 225.314 352.663C225.509 352.352 225.77 352.108 226.096 351.932C226.422 351.756 226.782 351.625 227.176 351.538C227.573 351.448 227.973 351.377 228.374 351.325C228.899 351.257 229.324 351.207 229.651 351.173C229.98 351.135 230.22 351.074 230.37 350.987C230.524 350.901 230.601 350.751 230.601 350.537V350.492C230.601 349.938 230.449 349.506 230.145 349.199C229.846 348.891 229.39 348.738 228.779 348.738C228.145 348.738 227.648 348.876 227.288 349.154C226.929 349.431 226.675 349.728 226.529 350.042L225.269 349.593C225.494 349.068 225.794 348.659 226.169 348.367C226.548 348.07 226.96 347.864 227.407 347.748C227.857 347.628 228.299 347.568 228.734 347.568C229.011 347.568 229.33 347.602 229.69 347.669C230.054 347.733 230.404 347.866 230.742 348.068C231.083 348.271 231.366 348.577 231.591 348.985C231.816 349.394 231.928 349.941 231.928 350.627V356.319H230.601V355.149H230.534C230.444 355.337 230.294 355.537 230.084 355.751C229.874 355.965 229.594 356.146 229.246 356.296C228.897 356.446 228.471 356.521 227.969 356.521ZM228.171 355.329C228.696 355.329 229.139 355.226 229.499 355.02C229.862 354.813 230.136 354.547 230.32 354.221C230.507 353.895 230.601 353.552 230.601 353.192V351.977C230.545 352.045 230.421 352.106 230.23 352.163C230.042 352.215 229.825 352.262 229.577 352.303C229.334 352.341 229.096 352.375 228.863 352.405C228.634 352.431 228.449 352.453 228.306 352.472C227.961 352.517 227.639 352.59 227.339 352.691C227.043 352.789 226.803 352.937 226.619 353.136C226.439 353.331 226.349 353.597 226.349 353.934C226.349 354.395 226.52 354.744 226.861 354.98C227.206 355.213 227.643 355.329 228.171 355.329ZM234.034 356.319V347.68H235.316V348.985H235.406C235.564 348.558 235.849 348.211 236.261 347.945C236.674 347.679 237.138 347.545 237.656 347.545C237.753 347.545 237.875 347.547 238.021 347.551C238.168 347.555 238.278 347.56 238.353 347.568V348.918C238.308 348.906 238.205 348.89 238.044 348.867C237.886 348.841 237.72 348.828 237.543 348.828C237.123 348.828 236.749 348.916 236.419 349.092C236.092 349.265 235.834 349.504 235.642 349.812C235.455 350.116 235.361 350.462 235.361 350.852V356.319H234.034Z" fill="#060020" fill-opacity="0.7"/>
<path d="M276.785 356.319H275.323L279.552 344.801H280.992L285.221 356.319H283.759L280.317 346.623H280.227L276.785 356.319ZM277.325 351.82H283.219V353.057H277.325V351.82ZM286.518 359.558V347.68H287.801V349.053H287.958C288.056 348.903 288.191 348.711 288.363 348.479C288.539 348.243 288.791 348.033 289.117 347.849C289.447 347.662 289.893 347.568 290.455 347.568C291.183 347.568 291.824 347.75 292.379 348.113C292.934 348.477 293.367 348.993 293.678 349.66C293.989 350.327 294.145 351.115 294.145 352.022C294.145 352.937 293.989 353.73 293.678 354.401C293.367 355.068 292.935 355.586 292.384 355.953C291.833 356.317 291.198 356.499 290.478 356.499C289.923 356.499 289.479 356.407 289.145 356.223C288.811 356.036 288.554 355.824 288.374 355.588C288.194 355.348 288.056 355.149 287.958 354.992H287.846V359.558H286.518ZM287.823 352C287.823 352.652 287.919 353.228 288.11 353.726C288.301 354.221 288.581 354.609 288.948 354.89C289.315 355.168 289.765 355.307 290.298 355.307C290.853 355.307 291.316 355.16 291.687 354.868C292.062 354.572 292.343 354.174 292.53 353.676C292.722 353.173 292.817 352.615 292.817 352C292.817 351.392 292.724 350.845 292.536 350.357C292.352 349.866 292.073 349.478 291.698 349.193C291.327 348.905 290.86 348.76 290.298 348.76C289.758 348.76 289.304 348.897 288.937 349.171C288.569 349.441 288.292 349.819 288.104 350.307C287.917 350.79 287.823 351.355 287.823 352ZM295.852 356.319V347.68H297.135V348.985H297.225C297.382 348.558 297.667 348.211 298.08 347.945C298.492 347.679 298.957 347.545 299.474 347.545C299.572 347.545 299.694 347.547 299.84 347.551C299.986 347.555 300.097 347.56 300.172 347.568V348.918C300.127 348.906 300.024 348.89 299.862 348.867C299.705 348.841 299.538 348.828 299.362 348.828C298.942 348.828 298.567 348.916 298.237 349.092C297.911 349.265 297.652 349.504 297.461 349.812C297.273 350.116 297.18 350.462 297.18 350.852V356.319H295.852Z" fill="#060020" fill-opacity="0.7"/>
<path d="M338.531 344.801H340.196L344.11 354.362H344.245L348.16 344.801H349.824V356.319H348.52V347.568H348.407L344.808 356.319H343.548L339.949 347.568H339.836V356.319H338.531V344.801ZM354.666 356.521C354.119 356.521 353.622 356.418 353.176 356.212C352.73 356.002 352.375 355.7 352.113 355.307C351.851 354.909 351.719 354.429 351.719 353.867C351.719 353.372 351.817 352.971 352.012 352.663C352.207 352.352 352.467 352.108 352.793 351.932C353.12 351.756 353.48 351.625 353.873 351.538C354.271 351.448 354.67 351.377 355.071 351.325C355.596 351.257 356.022 351.207 356.348 351.173C356.678 351.135 356.918 351.074 357.068 350.987C357.221 350.901 357.298 350.751 357.298 350.537V350.492C357.298 349.938 357.146 349.506 356.843 349.199C356.543 348.891 356.087 348.738 355.476 348.738C354.842 348.738 354.346 348.876 353.986 349.154C353.626 349.431 353.373 349.728 353.227 350.042L351.967 349.593C352.192 349.068 352.492 348.659 352.867 348.367C353.245 348.07 353.658 347.864 354.104 347.748C354.554 347.628 354.996 347.568 355.431 347.568C355.709 347.568 356.027 347.602 356.387 347.669C356.751 347.733 357.101 347.866 357.439 348.068C357.78 348.271 358.063 348.577 358.288 348.985C358.513 349.394 358.626 349.941 358.626 350.627V356.319H357.298V355.149H357.231C357.141 355.337 356.991 355.537 356.781 355.751C356.571 355.965 356.292 356.146 355.943 356.296C355.594 356.446 355.169 356.521 354.666 356.521ZM354.869 355.329C355.394 355.329 355.836 355.226 356.196 355.02C356.56 354.813 356.833 354.547 357.017 354.221C357.205 353.895 357.298 353.552 357.298 353.192V351.977C357.242 352.045 357.118 352.106 356.927 352.163C356.74 352.215 356.522 352.262 356.275 352.303C356.031 352.341 355.793 352.375 355.56 352.405C355.332 352.431 355.146 352.453 355.004 352.472C354.659 352.517 354.336 352.59 354.036 352.691C353.74 352.789 353.5 352.937 353.316 353.136C353.137 353.331 353.047 353.597 353.047 353.934C353.047 354.395 353.217 354.744 353.558 354.98C353.903 355.213 354.34 355.329 354.869 355.329ZM361.277 359.558C361.052 359.558 360.851 359.54 360.675 359.502C360.499 359.468 360.377 359.435 360.31 359.401L360.647 358.231C360.969 358.313 361.254 358.343 361.502 358.321C361.749 358.298 361.969 358.188 362.16 357.989C362.355 357.794 362.533 357.477 362.694 357.039L362.942 356.364L359.747 347.68H361.187L363.571 354.564H363.661L366.046 347.68H367.486L363.819 357.579C363.654 358.025 363.45 358.394 363.206 358.687C362.962 358.983 362.679 359.202 362.357 359.345C362.038 359.487 361.678 359.558 361.277 359.558Z" fill="#060020" fill-opacity="0.7"/>
<path d="M410.814 344.801H412.208V353.034C412.208 353.769 412.073 354.394 411.804 354.907C411.534 355.421 411.153 355.811 410.662 356.077C410.171 356.343 409.591 356.476 408.924 356.476C408.294 356.476 407.734 356.362 407.242 356.133C406.751 355.901 406.365 355.571 406.084 355.143C405.803 354.716 405.662 354.208 405.662 353.619H407.034C407.034 353.946 407.115 354.23 407.276 354.474C407.441 354.714 407.666 354.902 407.951 355.037C408.236 355.172 408.56 355.239 408.924 355.239C409.325 355.239 409.666 355.155 409.948 354.986C410.229 354.817 410.443 354.57 410.589 354.244C410.739 353.914 410.814 353.511 410.814 353.034V344.801ZM419.951 352.787V347.68H421.278V356.319H419.951V354.857H419.861C419.658 355.295 419.343 355.668 418.916 355.976C418.489 356.279 417.949 356.431 417.296 356.431C416.756 356.431 416.277 356.313 415.857 356.077C415.437 355.837 415.107 355.477 414.867 354.997C414.627 354.514 414.507 353.904 414.507 353.169V347.68H415.834V353.079C415.834 353.709 416.01 354.212 416.363 354.587C416.719 354.962 417.173 355.149 417.724 355.149C418.054 355.149 418.389 355.065 418.73 354.896C419.075 354.727 419.364 354.469 419.597 354.12C419.833 353.771 419.951 353.327 419.951 352.787ZM424.72 351.122V356.319H423.392V347.68H424.675V349.03H424.787C424.99 348.592 425.297 348.239 425.709 347.973C426.122 347.703 426.654 347.568 427.307 347.568C427.892 347.568 428.403 347.688 428.842 347.928C429.281 348.164 429.622 348.524 429.866 349.008C430.109 349.488 430.231 350.095 430.231 350.83V356.319H428.904V350.92C428.904 350.241 428.728 349.713 428.375 349.334C428.023 348.951 427.539 348.76 426.924 348.76C426.501 348.76 426.122 348.852 425.788 349.036C425.458 349.22 425.198 349.488 425.006 349.84C424.815 350.192 424.72 350.62 424.72 351.122Z" fill="#060020" fill-opacity="0.7"/>
<path d="M474.161 344.801H475.556V353.034C475.556 353.769 475.421 354.394 475.151 354.907C474.881 355.421 474.501 355.811 474.01 356.077C473.518 356.343 472.939 356.476 472.272 356.476C471.642 356.476 471.081 356.362 470.59 356.133C470.099 355.901 469.713 355.571 469.432 355.143C469.15 354.716 469.01 354.208 469.01 353.619H470.382C470.382 353.946 470.463 354.23 470.624 354.474C470.789 354.714 471.014 354.902 471.299 355.037C471.584 355.172 471.908 355.239 472.272 355.239C472.673 355.239 473.014 355.155 473.295 354.986C473.576 354.817 473.79 354.57 473.936 354.244C474.086 353.914 474.161 353.511 474.161 353.034V344.801ZM483.299 352.787V347.68H484.626V356.319H483.299V354.857H483.209C483.006 355.295 482.691 355.668 482.264 355.976C481.836 356.279 481.296 356.431 480.644 356.431C480.104 356.431 479.624 356.313 479.204 356.077C478.784 355.837 478.454 355.477 478.214 354.997C477.974 354.514 477.855 353.904 477.855 353.169V347.68H479.182V353.079C479.182 353.709 479.358 354.212 479.71 354.587C480.067 354.962 480.52 355.149 481.071 355.149C481.401 355.149 481.737 355.065 482.078 354.896C482.423 354.727 482.712 354.469 482.944 354.12C483.18 353.771 483.299 353.327 483.299 352.787ZM488.067 344.801V356.319H486.74V344.801H488.067Z" fill="#060020" fill-opacity="0.7"/>
<path d="M60.5118 315.795C59.6645 315.795 58.9428 315.565 58.3466 315.104C57.7505 314.639 57.2949 313.966 56.98 313.085C56.665 312.2 56.5076 311.131 56.5076 309.879C56.5076 308.634 56.665 307.571 56.98 306.69C57.2987 305.805 57.7561 305.13 58.3522 304.666C58.9521 304.197 59.672 303.963 60.5118 303.963C61.3517 303.963 62.0697 304.197 62.6658 304.666C63.2657 305.13 63.7231 305.805 64.0381 306.69C64.3568 307.571 64.5161 308.634 64.5161 309.879C64.5161 311.131 64.3586 312.2 64.0437 313.085C63.7288 313.966 63.2732 314.639 62.6771 315.104C62.0809 315.565 61.3592 315.795 60.5118 315.795ZM60.5118 314.558C61.3517 314.558 62.0041 314.153 62.469 313.343C62.9339 312.534 63.1664 311.379 63.1664 309.879C63.1664 308.882 63.0595 308.032 62.8458 307.331C62.6358 306.63 62.3321 306.096 61.9347 305.729C61.541 305.361 61.0667 305.177 60.5118 305.177C59.6795 305.177 59.029 305.588 58.5603 306.409C58.0917 307.226 57.8573 308.383 57.8573 309.879C57.8573 310.876 57.9623 311.724 58.1723 312.421C58.3822 313.118 58.6841 313.649 59.0777 314.013C59.4752 314.376 59.9532 314.558 60.5118 314.558Z" fill="#060020" fill-opacity="0.7"/>
<path d="M37.671 265.917V264.904L41.4728 260.743C41.919 260.255 42.2864 259.831 42.5751 259.472C42.8638 259.108 43.0775 258.767 43.2162 258.448C43.3587 258.126 43.4299 257.788 43.4299 257.436C43.4299 257.031 43.3324 256.68 43.1375 256.384C42.9463 256.088 42.6838 255.859 42.3501 255.698C42.0164 255.537 41.6415 255.456 41.2253 255.456C40.7829 255.456 40.3967 255.548 40.0668 255.732C39.7406 255.912 39.4875 256.165 39.3076 256.491C39.1313 256.817 39.0432 257.199 39.0432 257.638H37.716C37.716 256.963 37.8716 256.371 38.1828 255.861C38.494 255.351 38.9176 254.954 39.4538 254.669C39.9937 254.384 40.5992 254.241 41.2703 254.241C41.9452 254.241 42.5432 254.384 43.0644 254.669C43.5855 254.954 43.9942 255.338 44.2904 255.822C44.5866 256.305 44.7347 256.843 44.7347 257.436C44.7347 257.859 44.6578 258.274 44.5041 258.679C44.3541 259.08 44.0917 259.528 43.7168 260.023C43.3456 260.514 42.83 261.114 42.1702 261.822L39.5831 264.589V264.679H44.9372V265.917H37.671ZM50.6999 266.074C49.8526 266.074 49.1308 265.844 48.5347 265.382C47.9386 264.917 47.483 264.244 47.1681 263.363C46.8531 262.479 46.6957 261.41 46.6957 260.158C46.6957 258.913 46.8531 257.85 47.1681 256.969C47.4868 256.084 47.9442 255.409 48.5403 254.944C49.1402 254.476 49.8601 254.241 50.6999 254.241C51.5398 254.241 52.2578 254.476 52.8539 254.944C53.4538 255.409 53.9112 256.084 54.2262 256.969C54.5448 257.85 54.7042 258.913 54.7042 260.158C54.7042 261.41 54.5467 262.479 54.2318 263.363C53.9168 264.244 53.4613 264.917 52.8652 265.382C52.269 265.844 51.5473 266.074 50.6999 266.074ZM50.6999 264.837C51.5398 264.837 52.1922 264.432 52.6571 263.622C53.122 262.812 53.3544 261.657 53.3544 260.158C53.3544 259.16 53.2476 258.311 53.0339 257.61C52.8239 256.909 52.5202 256.375 52.1228 256.007C51.7291 255.64 51.2548 255.456 50.6999 255.456C49.8676 255.456 49.2171 255.867 48.7484 256.688C48.2797 257.505 48.0454 258.662 48.0454 260.158C48.0454 261.155 48.1504 262.002 48.3604 262.7C48.5703 263.397 48.8721 263.928 49.2658 264.291C49.6632 264.655 50.1413 264.837 50.6999 264.837ZM60.2814 266.074C59.434 266.074 58.7123 265.844 58.1161 265.382C57.52 264.917 57.0645 264.244 56.7495 263.363C56.4346 262.479 56.2771 261.41 56.2771 260.158C56.2771 258.913 56.4346 257.85 56.7495 256.969C57.0682 256.084 57.5256 255.409 58.1218 254.944C58.7217 254.476 59.4415 254.241 60.2814 254.241C61.1212 254.241 61.8392 254.476 62.4354 254.944C63.0352 255.409 63.4927 256.084 63.8076 256.969C64.1263 257.85 64.2856 258.913 64.2856 260.158C64.2856 261.41 64.1282 262.479 63.8132 263.363C63.4983 264.244 63.0427 264.917 62.4466 265.382C61.8505 265.844 61.1287 266.074 60.2814 266.074ZM60.2814 264.837C61.1212 264.837 61.7736 264.432 62.2385 263.622C62.7034 262.812 62.9359 261.657 62.9359 260.158C62.9359 259.16 62.829 258.311 62.6153 257.61C62.4054 256.909 62.1017 256.375 61.7042 256.007C61.3106 255.64 60.8363 255.456 60.2814 255.456C59.449 255.456 58.7985 255.867 58.3299 256.688C57.8612 257.505 57.6269 258.662 57.6269 260.158C57.6269 261.155 57.7318 262.002 57.9418 262.7C58.1518 263.397 58.4536 263.928 58.8473 264.291C59.2447 264.655 59.7227 264.837 60.2814 264.837Z" fill="#060020" fill-opacity="0.7"/>
<path d="M37.8288 213.833V212.686L42.8904 204.677H43.7227V206.454H43.1603L39.336 212.506V212.596H46.1523V213.833H37.8288ZM43.2503 216.195V213.484V212.95V204.677H44.5776V216.195H43.2503ZM51.6999 216.353C50.8526 216.353 50.1308 216.122 49.5347 215.661C48.9386 215.196 48.483 214.523 48.1681 213.642C47.8531 212.757 47.6957 211.688 47.6957 210.436C47.6957 209.191 47.8531 208.128 48.1681 207.247C48.4868 206.362 48.9442 205.688 49.5403 205.223C50.1402 204.754 50.8601 204.52 51.6999 204.52C52.5398 204.52 53.2578 204.754 53.8539 205.223C54.4538 205.688 54.9112 206.362 55.2262 207.247C55.5448 208.128 55.7042 209.191 55.7042 210.436C55.7042 211.688 55.5467 212.757 55.2318 213.642C54.9168 214.523 54.4613 215.196 53.8652 215.661C53.269 216.122 52.5473 216.353 51.6999 216.353ZM51.6999 215.115C52.5398 215.115 53.1922 214.71 53.6571 213.9C54.122 213.091 54.3544 211.936 54.3544 210.436C54.3544 209.439 54.2476 208.59 54.0339 207.888C53.8239 207.187 53.5202 206.653 53.1228 206.286C52.7291 205.918 52.2548 205.734 51.6999 205.734C50.8676 205.734 50.2171 206.145 49.7484 206.966C49.2797 207.783 49.0454 208.94 49.0454 210.436C49.0454 211.433 49.1504 212.281 49.3604 212.978C49.5703 213.676 49.8721 214.206 50.2658 214.57C50.6632 214.933 51.1413 215.115 51.6999 215.115ZM61.2814 216.353C60.434 216.353 59.7123 216.122 59.1161 215.661C58.52 215.196 58.0645 214.523 57.7495 213.642C57.4346 212.757 57.2771 211.688 57.2771 210.436C57.2771 209.191 57.4346 208.128 57.7495 207.247C58.0682 206.362 58.5256 205.688 59.1218 205.223C59.7217 204.754 60.4415 204.52 61.2814 204.52C62.1212 204.52 62.8392 204.754 63.4354 205.223C64.0352 205.688 64.4927 206.362 64.8076 207.247C65.1263 208.128 65.2856 209.191 65.2856 210.436C65.2856 211.688 65.1282 212.757 64.8132 213.642C64.4983 214.523 64.0427 215.196 63.4466 215.661C62.8505 216.122 62.1287 216.353 61.2814 216.353ZM61.2814 215.115C62.1212 215.115 62.7736 214.71 63.2385 213.9C63.7034 213.091 63.9359 211.936 63.9359 210.436C63.9359 209.439 63.829 208.59 63.6153 207.888C63.4054 207.187 63.1017 206.653 62.7042 206.286C62.3106 205.918 61.8363 205.734 61.2814 205.734C60.449 205.734 59.7985 206.145 59.3299 206.966C58.8612 207.783 58.6269 208.94 58.6269 210.436C58.6269 211.433 58.7318 212.281 58.9418 212.978C59.1518 213.676 59.4536 214.206 59.8473 214.57C60.2447 214.933 60.7227 215.115 61.2814 215.115Z" fill="#060020" fill-opacity="0.7"/>
<path d="M42.2014 166.631C41.729 166.624 41.2566 166.534 40.7842 166.361C40.3118 166.189 39.8806 165.898 39.4907 165.49C39.1007 165.077 38.7877 164.52 38.5515 163.819C38.3153 163.114 38.1972 162.23 38.1972 161.165C38.1972 160.145 38.2928 159.241 38.484 158.454C38.6752 157.663 38.9526 156.997 39.3163 156.457C39.68 155.914 40.1187 155.501 40.6323 155.22C41.1497 154.939 41.7328 154.798 42.3814 154.798C43.0263 154.798 43.5999 154.928 44.1023 155.186C44.6085 155.441 45.0209 155.798 45.3396 156.255C45.6583 156.712 45.8645 157.239 45.9582 157.835H44.586C44.4585 157.318 44.2111 156.889 43.8436 156.547C43.4762 156.206 42.9888 156.036 42.3814 156.036C41.4891 156.036 40.7861 156.424 40.2724 157.2C39.7625 157.976 39.5057 159.065 39.5019 160.467H39.5919C39.8019 160.149 40.0512 159.877 40.3399 159.652C40.6323 159.423 40.9548 159.247 41.3072 159.123C41.6597 158.999 42.0327 158.938 42.4264 158.938C43.0863 158.938 43.6899 159.103 44.2373 159.433C44.7847 159.759 45.2234 160.211 45.5533 160.788C45.8833 161.362 46.0482 162.02 46.0482 162.762C46.0482 163.474 45.8889 164.127 45.5702 164.719C45.2515 165.308 44.8035 165.776 44.2261 166.125C43.6524 166.47 42.9775 166.639 42.2014 166.631ZM42.2014 165.394C42.6738 165.394 43.0975 165.276 43.4724 165.04C43.8511 164.803 44.1492 164.487 44.3667 164.089C44.5879 163.692 44.6985 163.249 44.6985 162.762C44.6985 162.286 44.5916 161.853 44.3779 161.463C44.1679 161.069 43.8774 160.756 43.5062 160.524C43.1388 160.291 42.7188 160.175 42.2464 160.175C41.8902 160.175 41.5584 160.246 41.251 160.389C40.9435 160.527 40.6736 160.719 40.4411 160.962C40.2124 161.206 40.0325 161.485 39.9012 161.8C39.77 162.111 39.7044 162.439 39.7044 162.784C39.7044 163.242 39.8112 163.669 40.025 164.067C40.2424 164.464 40.5386 164.785 40.9135 165.028C41.2922 165.272 41.7215 165.394 42.2014 165.394ZM51.6999 166.631C50.8526 166.631 50.1308 166.401 49.5347 165.939C48.9386 165.475 48.483 164.802 48.1681 163.92C47.8531 163.036 47.6957 161.967 47.6957 160.715C47.6957 159.47 47.8531 158.407 48.1681 157.526C48.4868 156.641 48.9442 155.966 49.5403 155.501C50.1402 155.033 50.8601 154.798 51.6999 154.798C52.5398 154.798 53.2578 155.033 53.8539 155.501C54.4538 155.966 54.9112 156.641 55.2262 157.526C55.5448 158.407 55.7042 159.47 55.7042 160.715C55.7042 161.967 55.5467 163.036 55.2318 163.92C54.9168 164.802 54.4613 165.475 53.8652 165.939C53.269 166.401 52.5473 166.631 51.6999 166.631ZM51.6999 165.394C52.5398 165.394 53.1922 164.989 53.6571 164.179C54.122 163.369 54.3544 162.215 54.3544 160.715C54.3544 159.717 54.2476 158.868 54.0339 158.167C53.8239 157.466 53.5202 156.932 53.1228 156.564C52.7291 156.197 52.2548 156.013 51.6999 156.013C50.8676 156.013 50.2171 156.424 49.7484 157.245C49.2797 158.062 49.0454 159.219 49.0454 160.715C49.0454 161.712 49.1504 162.559 49.3604 163.257C49.5703 163.954 49.8721 164.485 50.2658 164.848C50.6632 165.212 51.1413 165.394 51.6999 165.394ZM61.2814 166.631C60.434 166.631 59.7123 166.401 59.1161 165.939C58.52 165.475 58.0645 164.802 57.7495 163.92C57.4346 163.036 57.2771 161.967 57.2771 160.715C57.2771 159.47 57.4346 158.407 57.7495 157.526C58.0682 156.641 58.5256 155.966 59.1218 155.501C59.7217 155.033 60.4415 154.798 61.2814 154.798C62.1212 154.798 62.8392 155.033 63.4354 155.501C64.0352 155.966 64.4927 156.641 64.8076 157.526C65.1263 158.407 65.2856 159.47 65.2856 160.715C65.2856 161.967 65.1282 163.036 64.8132 163.92C64.4983 164.802 64.0427 165.475 63.4466 165.939C62.8505 166.401 62.1287 166.631 61.2814 166.631ZM61.2814 165.394C62.1212 165.394 62.7736 164.989 63.2385 164.179C63.7034 163.369 63.9359 162.215 63.9359 160.715C63.9359 159.717 63.829 158.868 63.6153 158.167C63.4054 157.466 63.1017 156.932 62.7042 156.564C62.3106 156.197 61.8363 156.013 61.2814 156.013C60.449 156.013 59.7985 156.424 59.3299 157.245C58.8612 158.062 58.6269 159.219 58.6269 160.715C58.6269 161.712 58.7318 162.559 58.9418 163.257C59.1518 163.954 59.4536 164.485 59.8473 164.848C60.2447 165.212 60.7227 165.394 61.2814 165.394Z" fill="#060020" fill-opacity="0.7"/>
<path d="M41.1902 116.91C40.4178 116.91 39.7354 116.773 39.1431 116.499C38.5544 116.222 38.0951 115.841 37.7652 115.358C37.4352 114.87 37.2721 114.315 37.2759 113.693C37.2721 113.206 37.3678 112.756 37.5627 112.343C37.7577 111.927 38.0239 111.58 38.3613 111.303C38.7025 111.022 39.0831 110.844 39.503 110.769V110.701C38.9518 110.559 38.5132 110.249 38.187 109.773C37.8608 109.293 37.6996 108.748 37.7033 108.137C37.6996 107.552 37.8477 107.029 38.1476 106.567C38.4476 106.106 38.86 105.743 39.3849 105.476C39.9135 105.21 40.5153 105.077 41.1902 105.077C41.8576 105.077 42.4537 105.21 42.9786 105.476C43.5035 105.743 43.9159 106.106 44.2159 106.567C44.5196 107.029 44.6733 107.552 44.677 108.137C44.6733 108.748 44.5065 109.293 44.1765 109.773C43.8503 110.249 43.4173 110.559 42.8774 110.701V110.769C43.2935 110.844 43.6685 111.022 44.0022 111.303C44.3359 111.58 44.6021 111.927 44.8008 112.343C44.9995 112.756 45.1007 113.206 45.1045 113.693C45.1007 114.315 44.932 114.87 44.5983 115.358C44.2684 115.841 43.8091 116.222 43.2204 116.499C42.6355 116.773 41.9588 116.91 41.1902 116.91ZM41.1902 115.673C41.7113 115.673 42.1613 115.588 42.5399 115.42C42.9186 115.251 43.2111 115.013 43.4173 114.705C43.6235 114.398 43.7285 114.038 43.7322 113.626C43.7285 113.191 43.616 112.806 43.3948 112.473C43.1736 112.139 42.8718 111.877 42.4893 111.685C42.1106 111.494 41.6776 111.398 41.1902 111.398C40.699 111.398 40.2604 111.494 39.8742 111.685C39.4917 111.877 39.1899 112.139 38.9687 112.473C38.7513 112.806 38.6444 113.191 38.6481 113.626C38.6444 114.038 38.7438 114.398 38.9462 114.705C39.1524 115.013 39.4468 115.251 39.8292 115.42C40.2116 115.588 40.6653 115.673 41.1902 115.673ZM41.1902 110.206C41.6026 110.206 41.9682 110.124 42.2869 109.959C42.6093 109.794 42.8624 109.563 43.0461 109.267C43.2298 108.971 43.3235 108.624 43.3273 108.227C43.3235 107.837 43.2317 107.497 43.0517 107.209C42.8718 106.916 42.6224 106.691 42.3037 106.534C41.985 106.373 41.6139 106.292 41.1902 106.292C40.759 106.292 40.3822 106.373 40.0598 106.534C39.7373 106.691 39.488 106.916 39.3118 107.209C39.1356 107.497 39.0493 107.837 39.0531 108.227C39.0493 108.624 39.1374 108.971 39.3174 109.267C39.5011 109.563 39.7542 109.794 40.0766 109.959C40.3991 110.124 40.7703 110.206 41.1902 110.206ZM50.6999 116.91C49.8526 116.91 49.1308 116.679 48.5347 116.218C47.9386 115.753 47.483 115.08 47.1681 114.199C46.8531 113.314 46.6957 112.246 46.6957 110.994C46.6957 109.749 46.8531 108.686 47.1681 107.805C47.4868 106.92 47.9442 106.245 48.5403 105.78C49.1402 105.311 49.8601 105.077 50.6999 105.077C51.5398 105.077 52.2578 105.311 52.8539 105.78C53.4538 106.245 53.9112 106.92 54.2262 107.805C54.5448 108.686 54.7042 109.749 54.7042 110.994C54.7042 112.246 54.5467 113.314 54.2318 114.199C53.9168 115.08 53.4613 115.753 52.8652 116.218C52.269 116.679 51.5473 116.91 50.6999 116.91ZM50.6999 115.673C51.5398 115.673 52.1922 115.268 52.6571 114.458C53.122 113.648 53.3544 112.493 53.3544 110.994C53.3544 109.996 53.2476 109.147 53.0339 108.446C52.8239 107.745 52.5202 107.21 52.1228 106.843C51.7291 106.476 51.2548 106.292 50.6999 106.292C49.8676 106.292 49.2171 106.702 48.7484 107.524C48.2797 108.341 48.0454 109.498 48.0454 110.994C48.0454 111.991 48.1504 112.838 48.3604 113.536C48.5703 114.233 48.8721 114.763 49.2658 115.127C49.6632 115.491 50.1413 115.673 50.6999 115.673ZM60.2814 116.91C59.434 116.91 58.7123 116.679 58.1161 116.218C57.52 115.753 57.0645 115.08 56.7495 114.199C56.4346 113.314 56.2771 112.246 56.2771 110.994C56.2771 109.749 56.4346 108.686 56.7495 107.805C57.0682 106.92 57.5256 106.245 58.1218 105.78C58.7217 105.311 59.4415 105.077 60.2814 105.077C61.1212 105.077 61.8392 105.311 62.4354 105.78C63.0352 106.245 63.4927 106.92 63.8076 107.805C64.1263 108.686 64.2856 109.749 64.2856 110.994C64.2856 112.246 64.1282 113.314 63.8132 114.199C63.4983 115.08 63.0427 115.753 62.4466 116.218C61.8505 116.679 61.1287 116.91 60.2814 116.91ZM60.2814 115.673C61.1212 115.673 61.7736 115.268 62.2385 114.458C62.7034 113.648 62.9359 112.493 62.9359 110.994C62.9359 109.996 62.829 109.147 62.6153 108.446C62.4054 107.745 62.1017 107.21 61.7042 106.843C61.3106 106.476 60.8363 106.292 60.2814 106.292C59.449 106.292 58.7985 106.702 58.3299 107.524C57.8612 108.341 57.6269 109.498 57.6269 110.994C57.6269 111.991 57.7318 112.838 57.9418 113.536C58.1518 114.233 58.4536 114.763 58.8473 115.127C59.2447 115.491 59.7227 115.673 60.2814 115.673Z" fill="#060020" fill-opacity="0.7"/>
<path d="M83.7422 309.938H489.851" stroke="black" stroke-opacity="0.2" stroke-width="1.13122" stroke-dasharray="4.52 4.52"/>
<path d="M83.7422 260.217H489.851" stroke="black" stroke-opacity="0.2" stroke-width="1.13122" stroke-dasharray="4.52 4.52"/>
<path d="M83.7422 210.495H489.851" stroke="black" stroke-opacity="0.2" stroke-width="1.13122" stroke-dasharray="4.52 4.52"/>
<path d="M83.7422 160.774H489.851" stroke="black" stroke-opacity="0.2" stroke-width="1.13122" stroke-dasharray="4.52 4.52"/>
<path d="M83.7422 111.053H489.851" stroke="black" stroke-opacity="0.2" stroke-width="1.13122" stroke-dasharray="4.52 4.52"/>
<rect x="91.6602" y="140.433" width="11.3122" height="169.505" rx="5.65611" fill="#E2E2EA"/>
<mask id="path-20-inside-1_195_54009" fill="white">
<path d="M91.6602 179.991C91.6602 176.867 94.1925 174.335 97.3163 174.335C100.44 174.335 102.972 176.867 102.972 179.991V259.081C102.972 262.205 100.44 264.737 97.3163 264.737C94.1925 264.737 91.6602 262.205 91.6602 259.081V179.991Z"/>
</mask>
<path d="M91.6602 179.991C91.6602 176.867 94.1925 174.335 97.3163 174.335C100.44 174.335 102.972 176.867 102.972 179.991V259.081C102.972 262.205 100.44 264.737 97.3163 264.737C94.1925 264.737 91.6602 262.205 91.6602 259.081V179.991Z" fill="#CAC7F5"/>
<path d="M91.6602 176.597C91.6602 173.473 94.1925 170.941 97.3163 170.941C100.44 170.941 102.972 173.473 102.972 176.597V179.991C102.972 178.741 100.44 177.728 97.3163 177.728C94.1925 177.728 91.6602 178.741 91.6602 179.991V176.597ZM102.972 264.737H91.6602H102.972ZM91.6602 264.737V174.335V264.737ZM102.972 174.335V264.737V174.335Z" fill="white" mask="url(#path-20-inside-1_195_54009)"/>
<rect x="155.01" y="185.635" width="11.3122" height="124.303" rx="5.65611" fill="#E2E2EA"/>
<rect x="155.01" y="219.536" width="11.3122" height="56.5015" rx="5.65611" fill="#CAC7F5"/>
<rect x="218.357" y="125.743" width="11.3122" height="184.195" rx="5.65611" fill="#E2E2EA"/>
<mask id="path-25-inside-2_195_54009" fill="white">
<path d="M218.357 165.3C218.357 162.176 220.89 159.644 224.014 159.644C227.137 159.644 229.67 162.176 229.67 165.3V259.081C229.67 262.205 227.137 264.737 224.014 264.737C220.89 264.737 218.357 262.205 218.357 259.081V165.3Z"/>
</mask>
<path d="M218.357 165.3C218.357 162.176 220.89 159.644 224.014 159.644C227.137 159.644 229.67 162.176 229.67 165.3V259.081C229.67 262.205 227.137 264.737 224.014 264.737C220.89 264.737 218.357 262.205 218.357 259.081V165.3Z" fill="#CAC7F5"/>
<path d="M218.357 161.906C218.357 158.783 220.89 156.25 224.014 156.25C227.137 156.25 229.67 158.783 229.67 161.906V165.3C229.67 164.051 227.137 163.038 224.014 163.038C220.89 163.038 218.357 164.051 218.357 165.3V161.906ZM229.67 264.737H218.357H229.67ZM218.357 264.737V159.644V264.737ZM229.67 159.644V264.737V159.644Z" fill="white" mask="url(#path-25-inside-2_195_54009)"/>
<rect x="282.838" y="167.554" width="11.3122" height="142.384" rx="5.65611" fill="#E2E2EA"/>
<mask id="path-28-inside-3_195_54009" fill="white">
<path d="M282.838 195.811C282.838 192.687 285.37 190.155 288.494 190.155C291.618 190.155 294.15 192.687 294.15 195.811V270.381C294.15 273.505 291.618 276.037 288.494 276.037C285.37 276.037 282.838 273.505 282.838 270.381V195.811Z"/>
</mask>
<path d="M282.838 195.811C282.838 192.687 285.37 190.155 288.494 190.155C291.618 190.155 294.15 192.687 294.15 195.811V270.381C294.15 273.505 291.618 276.037 288.494 276.037C285.37 276.037 282.838 273.505 282.838 270.381V195.811Z" fill="#CAC7F5"/>
<path d="M282.838 192.417C282.838 189.293 285.37 186.761 288.494 186.761C291.618 186.761 294.15 189.293 294.15 192.417V195.811C294.15 194.561 291.618 193.548 288.494 193.548C285.37 193.548 282.838 194.561 282.838 195.811V192.417ZM294.15 276.037H282.838H294.15ZM282.838 276.037V190.155V276.037ZM294.15 190.155V276.037V190.155Z" fill="white" mask="url(#path-28-inside-3_195_54009)"/>
<rect x="347.316" y="140.433" width="11.3122" height="169.505" rx="5.65611" fill="#E2E2EA"/>
<mask id="path-31-inside-4_195_54009" fill="white">
<path d="M347.316 177.731C347.316 174.607 349.849 172.074 352.973 172.074C356.096 172.074 358.629 174.607 358.629 177.731V268.121C358.629 271.245 356.096 273.777 352.973 273.777C349.849 273.777 347.316 271.245 347.316 268.121V177.731Z"/>
</mask>
<path d="M347.316 177.731C347.316 174.607 349.849 172.074 352.973 172.074C356.096 172.074 358.629 174.607 358.629 177.731V268.121C358.629 271.245 356.096 273.777 352.973 273.777C349.849 273.777 347.316 271.245 347.316 268.121V177.731Z" fill="#CAC7F5"/>
<path d="M347.316 174.337C347.316 171.213 349.849 168.681 352.973 168.681C356.096 168.681 358.629 171.213 358.629 174.337V177.731C358.629 176.481 356.096 175.468 352.973 175.468C349.849 175.468 347.316 176.481 347.316 177.731V174.337ZM358.629 273.777H347.316H358.629ZM347.316 273.777V172.074V273.777ZM358.629 172.074V273.777V172.074Z" fill="white" mask="url(#path-31-inside-4_195_54009)"/>
<rect x="412.928" y="185.635" width="11.3122" height="124.303" rx="5.65611" fill="#E2E2EA"/>
<mask id="path-34-inside-5_195_54009" fill="white">
<path d="M412.928 225.192C412.928 222.068 415.46 219.536 418.584 219.536C421.708 219.536 424.24 222.068 424.24 225.192V281.681C424.24 284.805 421.708 287.338 418.584 287.338C415.46 287.338 412.928 284.805 412.928 281.681V225.192Z"/>
</mask>
<path d="M412.928 225.192C412.928 222.068 415.46 219.536 418.584 219.536C421.708 219.536 424.24 222.068 424.24 225.192V281.681C424.24 284.805 421.708 287.338 418.584 287.338C415.46 287.338 412.928 284.805 412.928 281.681V225.192Z" fill="#CAC7F5"/>
<path d="M412.928 221.798C412.928 218.674 415.46 216.142 418.584 216.142C421.708 216.142 424.24 218.674 424.24 221.798V225.192C424.24 223.942 421.708 222.929 418.584 222.929C415.46 222.929 412.928 223.942 412.928 225.192V221.798ZM424.24 287.338H412.928H424.24ZM412.928 287.338V219.536V287.338ZM424.24 219.536V287.338V219.536Z" fill="white" mask="url(#path-34-inside-5_195_54009)"/>
<rect x="472.883" y="230.836" width="11.3122" height="79.1022" rx="5.65611" fill="#E2E2EA"/>
<mask id="path-37-inside-6_195_54009" fill="white">
<path d="M472.883 253.442C472.883 250.319 475.415 247.786 478.539 247.786C481.663 247.786 484.195 250.319 484.195 253.442V287.332C484.195 290.455 481.663 292.988 478.539 292.988C475.415 292.988 472.883 290.455 472.883 287.332V253.442Z"/>
</mask>
<path d="M472.883 253.442C472.883 250.319 475.415 247.786 478.539 247.786C481.663 247.786 484.195 250.319 484.195 253.442V287.332C484.195 290.455 481.663 292.988 478.539 292.988C475.415 292.988 472.883 290.455 472.883 287.332V253.442Z" fill="#CAC7F5"/>
<path d="M472.883 250.049C472.883 246.925 475.415 244.393 478.539 244.393C481.663 244.393 484.195 246.925 484.195 250.049V253.442C484.195 252.193 481.663 251.18 478.539 251.18C475.415 251.18 472.883 252.193 472.883 253.442V250.049ZM484.195 292.988H472.883H484.195ZM472.883 292.988V247.786V292.988ZM484.195 247.786V292.988V247.786Z" fill="white" mask="url(#path-37-inside-6_195_54009)"/>
<mask id="path-39-inside-7_195_54009" fill="white">
<path d="M91.6602 225.192C91.6602 222.068 94.1925 219.536 97.3163 219.536C100.44 219.536 102.972 222.068 102.972 225.192V304.282C102.972 307.406 100.44 309.938 97.3163 309.938C94.1925 309.938 91.6602 307.406 91.6602 304.282V225.192Z"/>
</mask>
<path d="M91.6602 225.192C91.6602 222.068 94.1925 219.536 97.3163 219.536C100.44 219.536 102.972 222.068 102.972 225.192V304.282C102.972 307.406 100.44 309.938 97.3163 309.938C94.1925 309.938 91.6602 307.406 91.6602 304.282V225.192Z" fill="#826CE9"/>
<path d="M91.6602 221.798C91.6602 218.674 94.1925 216.142 97.3163 216.142C100.44 216.142 102.972 218.674 102.972 221.798V225.192C102.972 223.942 100.44 222.929 97.3163 222.929C94.1925 222.929 91.6602 223.942 91.6602 225.192V221.798ZM102.972 309.938H91.6602H102.972ZM91.6602 309.938V219.536V309.938ZM102.972 219.536V309.938V219.536Z" fill="white" mask="url(#path-39-inside-7_195_54009)"/>
<mask id="path-41-inside-8_195_54009" fill="white">
<path d="M155.01 259.093C155.01 255.969 157.542 253.437 160.666 253.437C163.79 253.437 166.322 255.969 166.322 259.093V304.282C166.322 307.406 163.79 309.938 160.666 309.938C157.542 309.938 155.01 307.406 155.01 304.282V259.093Z"/>
</mask>
<path d="M155.01 259.093C155.01 255.969 157.542 253.437 160.666 253.437C163.79 253.437 166.322 255.969 166.322 259.093V304.282C166.322 307.406 163.79 309.938 160.666 309.938C157.542 309.938 155.01 307.406 155.01 304.282V259.093Z" fill="#826CE9"/>
<path d="M155.01 255.699C155.01 252.575 157.542 250.043 160.666 250.043C163.79 250.043 166.322 252.575 166.322 255.699V259.093C166.322 257.843 163.79 256.83 160.666 256.83C157.542 256.83 155.01 257.843 155.01 259.093V255.699ZM166.322 309.938H155.01H166.322ZM155.01 309.938V253.437V309.938ZM166.322 253.437V309.938V253.437Z" fill="white" mask="url(#path-41-inside-8_195_54009)"/>
<mask id="path-43-inside-9_195_54009" fill="white">
<path d="M218.357 210.501C218.357 207.378 220.89 204.845 224.014 204.845C227.137 204.845 229.67 207.378 229.67 210.501V304.282C229.67 307.406 227.137 309.938 224.014 309.938C220.89 309.938 218.357 307.406 218.357 304.282V210.501Z"/>
</mask>
<path d="M218.357 210.501C218.357 207.378 220.89 204.845 224.014 204.845C227.137 204.845 229.67 207.378 229.67 210.501V304.282C229.67 307.406 227.137 309.938 224.014 309.938C220.89 309.938 218.357 307.406 218.357 304.282V210.501Z" fill="#826CE9"/>
<path d="M218.357 207.108C218.357 203.984 220.89 201.452 224.014 201.452C227.137 201.452 229.67 203.984 229.67 207.108V210.501C229.67 209.252 227.137 208.239 224.014 208.239C220.89 208.239 218.357 209.252 218.357 210.501V207.108ZM229.67 309.938H218.357H229.67ZM218.357 309.938V204.845V309.938ZM229.67 204.845V309.938V204.845Z" fill="white" mask="url(#path-43-inside-9_195_54009)"/>
<mask id="path-45-inside-10_195_54009" fill="white">
<path d="M282.838 229.712C282.838 226.588 285.37 224.056 288.494 224.056C291.618 224.056 294.15 226.588 294.15 229.712V304.282C294.15 307.406 291.618 309.938 288.494 309.938C285.37 309.938 282.838 307.406 282.838 304.282V229.712Z"/>
</mask>
<path d="M282.838 229.712C282.838 226.588 285.37 224.056 288.494 224.056C291.618 224.056 294.15 226.588 294.15 229.712V304.282C294.15 307.406 291.618 309.938 288.494 309.938C285.37 309.938 282.838 307.406 282.838 304.282V229.712Z" fill="#826CE9"/>
<path d="M282.838 226.318C282.838 223.194 285.37 220.662 288.494 220.662C291.618 220.662 294.15 223.194 294.15 226.318V229.712C294.15 228.462 291.618 227.449 288.494 227.449C285.37 227.449 282.838 228.462 282.838 229.712V226.318ZM294.15 309.938H282.838H294.15ZM282.838 309.938V224.056V309.938ZM294.15 224.056V309.938V224.056Z" fill="white" mask="url(#path-45-inside-10_195_54009)"/>
<mask id="path-47-inside-11_195_54009" fill="white">
<path d="M347.316 213.891C347.316 210.768 349.849 208.235 352.973 208.235C356.096 208.235 358.629 210.768 358.629 213.891V304.282C358.629 307.406 356.096 309.938 352.973 309.938C349.849 309.938 347.316 307.406 347.316 304.282V213.891Z"/>
</mask>
<path d="M347.316 213.891C347.316 210.768 349.849 208.235 352.973 208.235C356.096 208.235 358.629 210.768 358.629 213.891V304.282C358.629 307.406 356.096 309.938 352.973 309.938C349.849 309.938 347.316 307.406 347.316 304.282V213.891Z" fill="#826CE9"/>
<path d="M347.316 210.498C347.316 207.374 349.849 204.842 352.973 204.842C356.096 204.842 358.629 207.374 358.629 210.498V213.891C358.629 212.642 356.096 211.629 352.973 211.629C349.849 211.629 347.316 212.642 347.316 213.891V210.498ZM358.629 309.938H347.316H358.629ZM347.316 309.938V208.235V309.938ZM358.629 208.235V309.938V208.235Z" fill="white" mask="url(#path-47-inside-11_195_54009)"/>
<mask id="path-49-inside-12_195_54009" fill="white">
<path d="M412.928 247.792C412.928 244.669 415.46 242.136 418.584 242.136C421.708 242.136 424.24 244.669 424.24 247.792V304.282C424.24 307.406 421.708 309.938 418.584 309.938C415.46 309.938 412.928 307.406 412.928 304.282V247.792Z"/>
</mask>
<path d="M412.928 247.792C412.928 244.669 415.46 242.136 418.584 242.136C421.708 242.136 424.24 244.669 424.24 247.792V304.282C424.24 307.406 421.708 309.938 418.584 309.938C415.46 309.938 412.928 307.406 412.928 304.282V247.792Z" fill="#826CE9"/>
<path d="M412.928 244.399C412.928 241.275 415.46 238.743 418.584 238.743C421.708 238.743 424.24 241.275 424.24 244.399V247.792C424.24 246.543 421.708 245.53 418.584 245.53C415.46 245.53 412.928 246.543 412.928 247.792V244.399ZM424.24 309.938H412.928H424.24ZM412.928 309.938V242.136V309.938ZM424.24 242.136V309.938V242.136Z" fill="white" mask="url(#path-49-inside-12_195_54009)"/>
<mask id="path-51-inside-13_195_54009" fill="white">
<path d="M472.883 270.393C472.883 267.269 475.415 264.737 478.539 264.737C481.663 264.737 484.195 267.269 484.195 270.393V304.282C484.195 307.406 481.663 309.938 478.539 309.938C475.415 309.938 472.883 307.406 472.883 304.282V270.393Z"/>
</mask>
<path d="M472.883 270.393C472.883 267.269 475.415 264.737 478.539 264.737C481.663 264.737 484.195 267.269 484.195 270.393V304.282C484.195 307.406 481.663 309.938 478.539 309.938C475.415 309.938 472.883 307.406 472.883 304.282V270.393Z" fill="#826CE9"/>
<path d="M472.883 266.999C472.883 263.875 475.415 261.343 478.539 261.343C481.663 261.343 484.195 263.875 484.195 266.999V270.393C484.195 269.143 481.663 268.13 478.539 268.13C475.415 268.13 472.883 269.143 472.883 270.393V266.999ZM484.195 309.938H472.883H484.195ZM472.883 309.938V264.737V309.938ZM484.195 264.737V309.938V264.737Z" fill="white" mask="url(#path-51-inside-13_195_54009)"/>
<path d="M55.3163 50.6982H52.3115C52.2258 50.2055 52.0678 49.7689 51.8375 49.3887C51.6072 49.003 51.3206 48.6763 50.9778 48.4085C50.635 48.1407 50.244 47.9398 49.8048 47.8059C49.371 47.6666 48.9023 47.597 48.3988 47.597C47.5044 47.597 46.7116 47.822 46.0207 48.2719C45.3298 48.7165 44.7888 49.3699 44.3978 50.2323C44.0068 51.0892 43.8113 52.1364 43.8113 53.3736C43.8113 54.6323 44.0068 55.6929 44.3978 56.5552C44.7941 57.4122 45.3351 58.0603 46.0207 58.4995C46.7116 58.9333 47.5017 59.1503 48.3908 59.1503C48.8836 59.1503 49.3442 59.086 49.7727 58.9574C50.2065 58.8235 50.5949 58.628 50.9377 58.3709C51.2858 58.1138 51.5777 57.7978 51.8134 57.4229C52.0544 57.048 52.2205 56.6195 52.3115 56.1374L55.3163 56.1535C55.2038 56.9355 54.9601 57.6693 54.5852 58.3549C54.2156 59.0405 53.7309 59.6457 53.131 60.1706C52.5311 60.6902 51.8295 61.0972 51.026 61.3918C50.2226 61.6811 49.3308 61.8257 48.3506 61.8257C46.9045 61.8257 45.6136 61.4909 44.4781 60.8214C43.3426 60.1519 42.4481 59.1851 41.7947 57.921C41.1412 56.657 40.8145 55.1412 40.8145 53.3736C40.8145 51.6007 41.1439 50.085 41.8027 48.8263C42.4615 47.5622 43.3587 46.5954 44.4942 45.9259C45.6297 45.2564 46.9152 44.9216 48.3506 44.9216C49.2665 44.9216 50.1182 45.0502 50.9055 45.3073C51.6929 45.5644 52.3945 45.942 53.0105 46.4401C53.6265 46.9329 54.1326 47.5381 54.529 48.2558C54.9307 48.9682 55.1931 49.7823 55.3163 50.6982ZM65.3305 56.4106V49.2601H68.2388V61.6007H65.4188V59.4074H65.2903C65.0118 60.0983 64.5538 60.6634 63.9164 61.1026C63.2844 61.5418 62.5051 61.7614 61.5785 61.7614C60.7697 61.7614 60.0546 61.582 59.4333 61.2231C58.8174 60.8589 58.3353 60.3313 57.9871 59.6404C57.639 58.9441 57.4649 58.1031 57.4649 57.1176V49.2601H60.3733V56.6677C60.3733 57.4497 60.5876 58.071 61.0161 58.5316C61.4446 58.9923 62.007 59.2226 62.7033 59.2226C63.1317 59.2226 63.5468 59.1181 63.9486 58.9092C64.3503 58.7003 64.6797 58.3897 64.9368 57.9773C65.1992 57.5595 65.3305 57.0373 65.3305 56.4106ZM80.5307 52.522L77.8794 52.8112C77.8044 52.5434 77.6732 52.2917 77.4857 52.056C77.3036 51.8204 77.0572 51.6302 76.7466 51.4856C76.4359 51.341 76.0556 51.2687 75.6057 51.2687C75.0004 51.2687 74.4916 51.3999 74.0792 51.6623C73.6721 51.9248 73.4713 52.2649 73.4766 52.6827C73.4713 53.0416 73.6025 53.3335 73.8703 53.5584C74.1435 53.7834 74.5934 53.9682 75.22 54.1128L77.325 54.5627C78.4927 54.8144 79.3604 55.2135 79.9281 55.7598C80.5012 56.3061 80.7905 57.0212 80.7958 57.905C80.7905 58.6816 80.5628 59.3672 80.1129 59.9617C79.6683 60.5509 79.0497 61.0115 78.257 61.3436C77.4643 61.6757 76.5537 61.8417 75.5253 61.8417C74.0149 61.8417 72.7991 61.5257 71.8778 60.8937C70.9565 60.2563 70.4075 59.3699 70.2308 58.2344L73.0669 57.9612C73.1954 58.5182 73.4686 58.9387 73.8864 59.2226C74.3041 59.5064 74.8478 59.6484 75.5173 59.6484C76.2083 59.6484 76.7626 59.5064 77.1804 59.2226C77.6035 58.9387 77.8151 58.5879 77.8151 58.1701C77.8151 57.8166 77.6785 57.5247 77.4054 57.2944C77.1376 57.064 76.7198 56.8873 76.152 56.7641L74.047 56.3222C72.8633 56.0758 71.9876 55.6607 71.4198 55.0769C70.8521 54.4877 70.5709 53.7432 70.5762 52.8434C70.5709 52.0828 70.7771 51.424 71.1949 50.867C71.618 50.3046 72.2045 49.8707 72.9544 49.5654C73.7096 49.2548 74.58 49.0994 75.5655 49.0994C77.0117 49.0994 78.1499 49.4074 78.9801 50.0234C79.8156 50.6393 80.3325 51.4722 80.5307 52.522ZM88.9038 49.2601V51.5097H81.8096V49.2601H88.9038ZM83.561 46.3035H86.4694V57.8889C86.4694 58.2799 86.5284 58.5798 86.6462 58.7887C86.7694 58.9923 86.9301 59.1315 87.1282 59.2065C87.3264 59.2815 87.546 59.319 87.787 59.319C87.9692 59.319 88.1352 59.3056 88.2852 59.2788C88.4405 59.252 88.5583 59.2279 88.6387 59.2065L89.1288 61.4802C88.9734 61.5338 88.7512 61.5927 88.4619 61.6569C88.178 61.7212 87.8299 61.7587 87.4175 61.7694C86.689 61.7909 86.0329 61.6811 85.4491 61.44C84.8653 61.1936 84.402 60.8134 84.0592 60.2992C83.7217 59.785 83.5557 59.1422 83.561 58.3709V46.3035ZM96.1341 61.8417C94.9289 61.8417 93.8845 61.5766 93.0007 61.0463C92.1169 60.5161 91.4314 59.7743 90.9439 58.8209C90.4619 57.8675 90.2209 56.7534 90.2209 55.4786C90.2209 54.2038 90.4619 53.0871 90.9439 52.1283C91.4314 51.1696 92.1169 50.4251 93.0007 49.8948C93.8845 49.3646 94.9289 49.0994 96.1341 49.0994C97.3392 49.0994 98.3837 49.3646 99.2674 49.8948C100.151 50.4251 100.834 51.1696 101.316 52.1283C101.804 53.0871 102.047 54.2038 102.047 55.4786C102.047 56.7534 101.804 57.8675 101.316 58.8209C100.834 59.7743 100.151 60.5161 99.2674 61.0463C98.3837 61.5766 97.3392 61.8417 96.1341 61.8417ZM96.1501 59.5118C96.8036 59.5118 97.3499 59.3324 97.7891 58.9735C98.2283 58.6093 98.5551 58.1219 98.7693 57.5113C98.9889 56.9007 99.0987 56.2204 99.0987 55.4706C99.0987 54.7154 98.9889 54.0324 98.7693 53.4218C98.5551 52.8059 98.2283 52.3158 97.7891 51.9516C97.3499 51.5874 96.8036 51.4053 96.1501 51.4053C95.4806 51.4053 94.9236 51.5874 94.479 51.9516C94.0398 52.3158 93.7104 52.8059 93.4908 53.4218C93.2766 54.0324 93.1694 54.7154 93.1694 55.4706C93.1694 56.2204 93.2766 56.9007 93.4908 57.5113C93.7104 58.1219 94.0398 58.6093 94.479 58.9735C94.9236 59.3324 95.4806 59.5118 96.1501 59.5118ZM104.063 61.6007V49.2601H106.843V51.357H106.988C107.245 50.65 107.671 50.0983 108.265 49.702C108.86 49.3003 109.569 49.0994 110.394 49.0994C111.23 49.0994 111.934 49.303 112.507 49.71C113.086 50.1117 113.493 50.6607 113.729 51.357H113.857C114.13 50.6715 114.591 50.1251 115.239 49.7181C115.892 49.3056 116.666 49.0994 117.561 49.0994C118.696 49.0994 119.623 49.4583 120.341 50.176C121.058 50.8937 121.417 51.9409 121.417 53.3174V61.6007H118.501V53.7673C118.501 53.0014 118.297 52.4417 117.89 52.0882C117.483 51.7293 116.985 51.5499 116.396 51.5499C115.694 51.5499 115.145 51.7695 114.749 52.2087C114.358 52.6425 114.162 53.2076 114.162 53.9039V61.6007H111.31V53.6468C111.31 53.0094 111.117 52.5006 110.732 52.1203C110.351 51.74 109.853 51.5499 109.237 51.5499C108.82 51.5499 108.439 51.657 108.096 51.8712C107.754 52.0801 107.481 52.3774 107.277 52.763C107.073 53.1433 106.972 53.5879 106.972 54.0967V61.6007H104.063ZM129.379 61.8417C128.141 61.8417 127.073 61.5846 126.173 61.0704C125.279 60.5509 124.59 59.8171 124.108 58.8691C123.626 57.9157 123.385 56.7936 123.385 55.5027C123.385 54.2333 123.626 53.1192 124.108 52.1605C124.596 51.1964 125.276 50.4465 126.149 49.9109C127.022 49.3699 128.048 49.0994 129.226 49.0994C129.987 49.0994 130.704 49.2226 131.379 49.469C132.059 49.71 132.659 50.085 133.179 50.5938C133.704 51.1026 134.116 51.7507 134.416 52.5381C134.716 53.3201 134.866 54.2521 134.866 55.334V56.2258H124.751V54.2654H132.078C132.073 53.7084 131.952 53.213 131.717 52.7791C131.481 52.3399 131.152 51.9944 130.728 51.7427C130.311 51.4909 129.823 51.3651 129.266 51.3651C128.672 51.3651 128.149 51.5097 127.699 51.7989C127.25 52.0828 126.899 52.4577 126.647 52.9237C126.401 53.3844 126.275 53.8905 126.269 54.4422V56.1535C126.269 56.8712 126.401 57.4872 126.663 58.0014C126.926 58.5102 127.292 58.9012 127.764 59.1744C128.235 59.4422 128.787 59.5761 129.419 59.5761C129.842 59.5761 130.225 59.5172 130.568 59.3993C130.911 59.2761 131.208 59.0967 131.46 58.861C131.711 58.6254 131.901 58.3334 132.03 57.9853L134.746 58.2906C134.574 59.0083 134.247 59.635 133.765 60.1706C133.289 60.7009 132.678 61.1133 131.934 61.4079C131.189 61.6971 130.337 61.8417 129.379 61.8417ZM136.874 61.6007V49.2601H139.694V51.3169H139.823C140.048 50.6045 140.433 50.0555 140.98 49.6699C141.531 49.2789 142.161 49.0834 142.868 49.0834C143.028 49.0834 143.208 49.0914 143.406 49.1075C143.609 49.1182 143.778 49.1369 143.912 49.1637V51.8391C143.789 51.7962 143.593 51.7588 143.326 51.7266C143.063 51.6891 142.809 51.6704 142.562 51.6704C142.032 51.6704 141.555 51.7855 141.132 52.0159C140.714 52.2408 140.385 52.5541 140.144 52.9559C139.903 53.3576 139.782 53.8209 139.782 54.3458V61.6007H136.874ZM161.703 50.401C161.569 49.9671 161.384 49.5788 161.148 49.236C160.918 48.8879 160.64 48.5906 160.313 48.3442C159.991 48.0978 159.622 47.913 159.204 47.7898C158.786 47.6613 158.331 47.597 157.838 47.597C156.955 47.597 156.167 47.8193 155.476 48.2639C154.785 48.7084 154.242 49.3619 153.845 50.2242C153.454 51.0812 153.259 52.1257 153.259 53.3576C153.259 54.6002 153.454 55.6527 153.845 56.515C154.236 57.3774 154.78 58.0335 155.476 58.4834C156.173 58.928 156.981 59.1503 157.903 59.1503C158.738 59.1503 159.461 58.9896 160.072 58.6682C160.688 58.3468 161.162 57.8916 161.494 57.3024C161.826 56.7079 161.992 56.0116 161.992 55.2135L162.667 55.3179H158.2V52.988H164.876V54.9644C164.876 56.3731 164.576 57.5916 163.976 58.62C163.377 59.6484 162.552 60.4411 161.502 60.9981C160.452 61.5498 159.247 61.8257 157.886 61.8257C156.371 61.8257 155.04 61.4856 153.893 60.8053C152.753 60.1197 151.861 59.1476 151.218 57.8889C150.581 56.6248 150.262 55.1251 150.262 53.3897C150.262 52.0614 150.449 50.875 150.824 49.8305C151.205 48.7861 151.735 47.8996 152.415 47.1712C153.095 46.4374 153.893 45.8804 154.809 45.5001C155.725 45.1144 156.722 44.9216 157.798 44.9216C158.709 44.9216 159.558 45.0555 160.345 45.3233C161.132 45.5858 161.831 45.9607 162.442 46.4481C163.058 46.9355 163.564 47.514 163.96 48.1835C164.357 48.853 164.617 49.5922 164.74 50.401H161.703ZM167.178 61.6007V49.2601H169.998V51.3169H170.126C170.351 50.6045 170.737 50.0555 171.283 49.6699C171.835 49.2789 172.464 49.0834 173.171 49.0834C173.332 49.0834 173.511 49.0914 173.709 49.1075C173.913 49.1182 174.082 49.1369 174.216 49.1637V51.8391C174.092 51.7962 173.897 51.7588 173.629 51.7266C173.367 51.6891 173.112 51.6704 172.866 51.6704C172.336 51.6704 171.859 51.7855 171.436 52.0159C171.018 52.2408 170.688 52.5541 170.447 52.9559C170.206 53.3576 170.086 53.8209 170.086 54.3458V61.6007H167.178ZM180.57 61.8417C179.365 61.8417 178.32 61.5766 177.437 61.0463C176.553 60.5161 175.867 59.7743 175.38 58.8209C174.898 57.8675 174.657 56.7534 174.657 55.4786C174.657 54.2038 174.898 53.0871 175.38 52.1283C175.867 51.1696 176.553 50.4251 177.437 49.8948C178.32 49.3646 179.365 49.0994 180.57 49.0994C181.775 49.0994 182.82 49.3646 183.703 49.8948C184.587 50.4251 185.27 51.1696 185.752 52.1283C186.24 53.0871 186.483 54.2038 186.483 55.4786C186.483 56.7534 186.24 57.8675 185.752 58.8209C185.27 59.7743 184.587 60.5161 183.703 61.0463C182.82 61.5766 181.775 61.8417 180.57 61.8417ZM180.586 59.5118C181.24 59.5118 181.786 59.3324 182.225 58.9735C182.664 58.6093 182.991 58.1219 183.205 57.5113C183.425 56.9007 183.535 56.2204 183.535 55.4706C183.535 54.7154 183.425 54.0324 183.205 53.4218C182.991 52.8059 182.664 52.3158 182.225 51.9516C181.786 51.5874 181.24 51.4053 180.586 51.4053C179.917 51.4053 179.36 51.5874 178.915 51.9516C178.476 52.3158 178.146 52.8059 177.927 53.4218C177.713 54.0324 177.605 54.7154 177.605 55.4706C177.605 56.2204 177.713 56.9007 177.927 57.5113C178.146 58.1219 178.476 58.6093 178.915 58.9735C179.36 59.3324 179.917 59.5118 180.586 59.5118ZM190.693 61.6007L187.206 49.2601H190.17L192.34 57.9371H192.452L194.67 49.2601H197.602L199.82 57.8889H199.94L202.077 49.2601H205.05L201.555 61.6007H198.526L196.212 53.2612H196.043L193.73 61.6007H190.693ZM212.79 49.2601V51.5097H205.696V49.2601H212.79ZM207.447 46.3035H210.356V57.8889C210.356 58.2799 210.415 58.5798 210.533 58.7887C210.656 58.9923 210.817 59.1315 211.015 59.2065C211.213 59.2815 211.432 59.319 211.674 59.319C211.856 59.319 212.022 59.3056 212.172 59.2788C212.327 59.252 212.445 59.2279 212.525 59.2065L213.015 61.4802C212.86 61.5338 212.638 61.5927 212.348 61.6569C212.065 61.7212 211.716 61.7587 211.304 61.7694C210.575 61.7909 209.919 61.6811 209.336 61.44C208.752 61.1936 208.288 60.8134 207.946 60.2992C207.608 59.785 207.442 59.1422 207.447 58.3709V46.3035ZM217.944 54.3699V61.6007H215.035V45.1466H217.879V51.357H218.024C218.313 50.6607 218.76 50.1117 219.366 49.71C219.976 49.303 220.753 49.0994 221.696 49.0994C222.553 49.0994 223.3 49.2789 223.937 49.6377C224.575 49.9966 225.067 50.5215 225.416 51.2124C225.769 51.9034 225.946 52.747 225.946 53.7432V61.6007H223.037V54.1931C223.037 53.3629 222.823 52.7175 222.395 52.2569C221.972 51.7909 221.377 51.5579 220.611 51.5579C220.097 51.5579 219.636 51.6704 219.229 51.8953C218.827 52.1149 218.511 52.4336 218.281 52.8514C218.056 53.2692 217.944 53.7754 217.944 54.3699Z" fill="#060020" fill-opacity="0.7"/>
<path d="M393.077 47.9032V59.4211H391.682V47.9032H393.077ZM396.704 54.2246V59.4211H395.376V50.7827H396.659V52.1325H396.771C396.974 51.6938 397.281 51.3414 397.693 51.0752C398.106 50.8052 398.638 50.6702 399.291 50.6702C399.876 50.6702 400.387 50.7902 400.826 51.0302C401.265 51.2664 401.606 51.6263 401.85 52.11C402.093 52.5899 402.215 53.1973 402.215 53.9321V59.4211H400.888V54.0221C400.888 53.3435 400.712 52.8149 400.359 52.4362C400.007 52.0537 399.523 51.8625 398.908 51.8625C398.485 51.8625 398.106 51.9544 397.772 52.1381C397.442 52.3218 397.182 52.5899 396.99 52.9423C396.799 53.2948 396.704 53.7222 396.704 54.2246ZM412.218 50.7827V51.9075H407.741V50.7827H412.218ZM409.046 48.7131H410.373V56.9466C410.373 57.3215 410.428 57.6027 410.536 57.7902C410.649 57.9739 410.791 58.0976 410.964 58.1614C411.14 58.2214 411.326 58.2514 411.521 58.2514C411.667 58.2514 411.787 58.2439 411.881 58.2289C411.974 58.2101 412.049 58.1951 412.106 58.1839L412.375 59.3762C412.286 59.4099 412.16 59.4436 411.999 59.4774C411.837 59.5149 411.633 59.5336 411.386 59.5336C411.011 59.5336 410.643 59.453 410.283 59.2918C409.927 59.1306 409.631 58.885 409.395 58.5551C409.162 58.2251 409.046 57.8089 409.046 57.3065V48.7131ZM415.411 54.2246V59.4211H414.083V47.9032H415.411V52.1325H415.523C415.726 51.6863 416.029 51.332 416.434 51.0695C416.843 50.8033 417.387 50.6702 418.065 50.6702C418.654 50.6702 419.169 50.7883 419.612 51.0246C420.054 51.257 420.397 51.6151 420.641 52.0987C420.888 52.5786 421.012 53.1898 421.012 53.9321V59.4211H419.685V54.0221C419.685 53.336 419.507 52.8055 419.151 52.4305C418.798 52.0519 418.309 51.8625 417.683 51.8625C417.248 51.8625 416.858 51.9544 416.513 52.1381C416.172 52.3218 415.902 52.5899 415.703 52.9423C415.508 53.2948 415.411 53.7222 415.411 54.2246ZM423.124 59.4211V50.7827H424.451V59.4211H423.124ZM423.798 49.343C423.54 49.343 423.317 49.2549 423.129 49.0787C422.945 48.9024 422.854 48.6906 422.854 48.4431C422.854 48.1957 422.945 47.9839 423.129 47.8076C423.317 47.6314 423.54 47.5433 423.798 47.5433C424.057 47.5433 424.278 47.6314 424.462 47.8076C424.649 47.9839 424.743 48.1957 424.743 48.4431C424.743 48.6906 424.649 48.9024 424.462 49.0787C424.278 49.2549 424.057 49.343 423.798 49.343ZM432.684 52.7174L431.492 53.0548C431.417 52.8561 431.306 52.663 431.16 52.4755C431.017 52.2843 430.822 52.1269 430.575 52.0031C430.327 51.8794 430.011 51.8175 429.624 51.8175C429.096 51.8175 428.655 51.9394 428.303 52.1831C427.954 52.423 427.78 52.7286 427.78 53.0998C427.78 53.4297 427.9 53.6903 428.14 53.8815C428.38 54.0727 428.755 54.2321 429.264 54.3596L430.547 54.6745C431.319 54.862 431.895 55.1488 432.273 55.535C432.652 55.9174 432.841 56.4104 432.841 57.0141C432.841 57.509 432.699 57.9514 432.414 58.3413C432.133 58.7313 431.739 59.0387 431.233 59.2637C430.727 59.4886 430.138 59.6011 429.467 59.6011C428.586 59.6011 427.857 59.4099 427.279 59.0275C426.702 58.645 426.336 58.0864 426.183 57.3515L427.442 57.0366C427.562 57.5015 427.789 57.8502 428.123 58.0826C428.46 58.3151 428.901 58.4313 429.444 58.4313C430.063 58.4313 430.554 58.3001 430.918 58.0376C431.285 57.7714 431.469 57.4528 431.469 57.0816C431.469 56.7816 431.364 56.5304 431.154 56.328C430.944 56.1217 430.622 55.968 430.187 55.8668L428.747 55.5294C427.956 55.3419 427.375 55.0513 427.004 54.6576C426.636 54.2602 426.453 53.7634 426.453 53.1673C426.453 52.6799 426.589 52.2487 426.863 51.8738C427.141 51.4988 427.517 51.2045 427.993 50.9908C428.473 50.7771 429.017 50.6702 429.624 50.6702C430.479 50.6702 431.15 50.8577 431.638 51.2326C432.129 51.6076 432.478 52.1025 432.684 52.7174ZM439.515 62.6606C439.29 62.6606 439.089 62.6418 438.913 62.6043C438.737 62.5706 438.615 62.5368 438.547 62.5031L438.885 61.3333C439.207 61.4158 439.492 61.4458 439.74 61.4233C439.987 61.4008 440.207 61.2902 440.398 61.0915C440.593 60.8965 440.771 60.5797 440.932 60.141L441.18 59.4661L437.985 50.7827H439.425L441.809 57.6665H441.899L444.284 50.7827H445.724L442.057 60.6809C441.892 61.1271 441.688 61.4964 441.444 61.7888C441.2 62.085 440.917 62.3044 440.595 62.4468C440.276 62.5893 439.916 62.6606 439.515 62.6606ZM450.471 59.6011C449.639 59.6011 448.921 59.4174 448.317 59.05C447.717 58.6788 447.254 58.1614 446.928 57.4977C446.606 56.8304 446.445 56.0543 446.445 55.1694C446.445 54.2846 446.606 53.5047 446.928 52.8298C447.254 52.1512 447.708 51.6226 448.289 51.2439C448.874 50.8615 449.556 50.6702 450.336 50.6702C450.786 50.6702 451.231 50.7452 451.669 50.8952C452.108 51.0452 452.507 51.2889 452.867 51.6263C453.227 51.96 453.514 52.4024 453.728 52.9536C453.941 53.5047 454.048 54.1833 454.048 54.9895V55.5518H447.389V54.4046H452.698C452.698 53.9171 452.601 53.4822 452.406 53.0998C452.215 52.7174 451.941 52.4155 451.585 52.1943C451.232 51.9731 450.816 51.8625 450.336 51.8625C449.808 51.8625 449.35 51.9938 448.964 52.2562C448.582 52.5149 448.287 52.8523 448.081 53.2685C447.875 53.6847 447.772 54.1309 447.772 54.607V55.3719C447.772 56.0243 447.884 56.5773 448.109 57.031C448.338 57.4809 448.655 57.8239 449.06 58.0601C449.465 58.2926 449.935 58.4088 450.471 58.4088C450.82 58.4088 451.135 58.3601 451.416 58.2626C451.701 58.1614 451.947 58.0114 452.153 57.8127C452.359 57.6102 452.518 57.359 452.631 57.0591L453.913 57.419C453.778 57.8539 453.551 58.2364 453.233 58.5663C452.914 58.8925 452.52 59.1474 452.052 59.3312C451.583 59.5111 451.056 59.6011 450.471 59.6011ZM458.292 59.6236C457.745 59.6236 457.248 59.5205 456.802 59.3143C456.356 59.1043 456.002 58.8025 455.739 58.4088C455.477 58.0114 455.345 57.5315 455.345 56.9691C455.345 56.4742 455.443 56.073 455.638 55.7656C455.833 55.4544 456.093 55.2107 456.42 55.0344C456.746 54.8582 457.106 54.727 457.499 54.6408C457.897 54.5508 458.296 54.4795 458.697 54.4271C459.222 54.3596 459.648 54.309 459.974 54.2752C460.304 54.2377 460.544 54.1759 460.694 54.0896C460.848 54.0034 460.924 53.8534 460.924 53.6397V53.5947C460.924 53.0398 460.773 52.6086 460.469 52.3012C460.169 51.9938 459.713 51.84 459.102 51.84C458.469 51.84 457.972 51.9788 457.612 52.2562C457.252 52.5337 456.999 52.8298 456.853 53.1448L455.593 52.6949C455.818 52.17 456.118 51.7613 456.493 51.4688C456.871 51.1727 457.284 50.9664 457.73 50.8502C458.18 50.7302 458.622 50.6702 459.057 50.6702C459.335 50.6702 459.653 50.704 460.013 50.7715C460.377 50.8352 460.728 50.9683 461.065 51.1708C461.406 51.3732 461.689 51.6788 461.914 52.0875C462.139 52.4962 462.252 53.0436 462.252 53.7297V59.4211H460.924V58.2514H460.857C460.767 58.4388 460.617 58.6394 460.407 58.8531C460.197 59.0668 459.918 59.2487 459.569 59.3986C459.22 59.5486 458.795 59.6236 458.292 59.6236ZM458.495 58.4313C459.02 58.4313 459.462 58.3282 459.822 58.122C460.186 57.9158 460.46 57.6496 460.643 57.3234C460.831 56.9972 460.924 56.6541 460.924 56.2942V55.0794C460.868 55.1469 460.745 55.2088 460.553 55.265C460.366 55.3175 460.148 55.3644 459.901 55.4056C459.657 55.4431 459.419 55.4769 459.187 55.5069C458.958 55.5331 458.772 55.5556 458.63 55.5743C458.285 55.6193 457.963 55.6924 457.663 55.7937C457.366 55.8912 457.126 56.0393 456.943 56.238C456.763 56.4329 456.673 56.6991 456.673 57.0366C456.673 57.4977 456.843 57.8464 457.185 58.0826C457.529 58.3151 457.966 58.4313 458.495 58.4313ZM464.358 59.4211V50.7827H465.64V52.0875H465.73C465.887 51.6601 466.172 51.3132 466.585 51.047C466.997 50.7808 467.462 50.6477 467.979 50.6477C468.077 50.6477 468.199 50.6496 468.345 50.6534C468.491 50.6571 468.602 50.6627 468.677 50.6702V52.02C468.632 52.0087 468.529 51.9919 468.367 51.9694C468.21 51.9431 468.043 51.93 467.867 51.93C467.447 51.93 467.072 52.0181 466.742 52.1943C466.416 52.3668 466.157 52.6068 465.966 52.9142C465.779 53.2179 465.685 53.5647 465.685 53.9546V59.4211H464.358Z" fill="#060020" fill-opacity="0.7"/>
<path d="M493.541 50.1802H488.255H483.495C482.681 50.1802 482.274 51.1644 482.851 51.7413L487.245 56.1361C487.95 56.8403 489.095 56.8403 489.799 56.1361L491.47 54.4647L494.194 51.7413C494.762 51.1644 494.355 50.1802 493.541 50.1802Z" fill="#92929D"/>
</svg>
